:version 1.10
:name ASF
:units
  mass 1
  length 1
  angle deg
:documentation
  ASF file generated by Kaydara
:root
  axis xyz
  order  tx ty tz rx ry rz
  position 0 0 0
  orientation 0 0 0
:bonedata
  begin
    id 1
    name abdomenDummy
    direction 1 -1.27917e-005 -1.26829e-007
    length 1.79048
    axis 0 0 0 xyz
  end
  begin
    id 2
    name abdomen
    direction 0.987238 0.159249 -9.68575e-008
    length 8.61378
    axis 2.73208e-005 5.54953e-006 9.16328 xyz
    dof rx ry rz
  end
  begin
    id 3
    name chest
    direction 0 0 0
    length 0
    axis 2.65071e-005 8.63688e-006 2.59796 xyz
    dof rx ry rz
  end
  begin
    id 4
    name neckDummyDummy
    direction 0.998972 0.0453274 -1.50742e-007
    length 9.56202
    axis 2.65071e-005 8.63688e-006 2.59796 xyz
  end
  begin
    id 5
    name neckDummy
    direction 0.99977 0.0214525 -1.61748e-007
    length 1.93574
    axis 2.62932e-005 9.26758e-006 1.22924 xyz
    dof rx ry rz
  end
  begin
    id 6
    name neck
    direction 0.99928 -0.0379406 -1.88707e-007
    length 3.70367
    axis 2.56966e-005 1.08122e-005 -2.17436 xyz
    dof rx ry rz
  end
  begin
    id 7
    name head
    direction 0.992648 -0.121037 -2.25408e-007
    length 6.35158
    axis 2.47068e-005 1.29149e-005 -6.95196 xyz
    dof rx ry rz
  end
  begin
    id 8
    name figureHair
    direction -0.86681 -0.498639 -7.83376e-008
    length 8.29884
    axis -2.7515e-005 4.48842e-006 -150.09 xyz
    dof rx ry rz
  end
  begin
    id 9
    name lCollarDummy
    direction 0.994611 0.0451299 -0.0933417
    length 9.60395
    axis 2.65071e-005 8.63688e-006 2.59796 xyz
  end
  begin
    id 10
    name lCollar
    direction 0.0384146 0.00127577 -0.999261
    length 6.95318
    axis 90.4899 87.7973 1.90202 xyz
    dof rx ry rz
  end
  begin
    id 11
    name lShldr
    direction -0.030648 0.0920515 -0.995282
    length 9.61158
    axis -161.793 84.4324 108.415 xyz
    dof rx ry rz
  end
  begin
    id 12
    name lForeArm
    direction 0.000163956 -0.0977586 -0.99521
    length 8.6068
    axis 0.134773 84.3899 -89.8525 xyz
    dof rx ry rz
  end
  begin
    id 13
    name lHand
    direction -0.0190533 -0.1444 -0.989336
    length 7.61479
    axis -7.3729 81.6249 -97.517 xyz
    dof rx ry rz
  end
  begin
    id 14
    name rCollarDummy
    direction 0.994871 0.0442627 0.0909555
    length 9.60761
    axis 2.65071e-005 8.63688e-006 2.59796 xyz
  end
  begin
    id 15
    name rCollar
    direction 0.0334251 -4.74072e-007 0.999441
    length 6.97058
    axis -178.152 -88.0845 -0.000674207 xyz
    dof rx ry rz
  end
  begin
    id 16
    name rShldr
    direction -0.026922 0.0719509 0.997045
    length 9.60913
    axis 71.2822 -85.594 110.514 xyz
    dof rx ry rz
  end
  begin
    id 17
    name rForeArm
    direction 0.00134679 -0.118986 0.992895
    length 8.57176
    axis -88.7923 -83.1659 -89.3516 xyz
    dof rx ry rz
  end
  begin
    id 18
    name rHand
    direction -0.0185183 -0.0768601 0.99687
    length 7.69687
    axis -74.5596 -85.4655 -103.546 xyz
    dof rx ry rz
  end
  begin
    id 19
    name lThighDummy
    direction -0.236086 -0.0385456 -0.970967
    length 4.99155
    axis 0 0 0 xyz
  end
  begin
    id 20
    name lThigh
    direction -0.993968 0.0148998 -0.108653
    length 13.572
    axis -91.4001 6.23768 179.141 xyz
    dof rx ry rz
  end
  begin
    id 21
    name lShin
    direction -0.992341 0.0904576 -0.0841193
    length 18.5862
    axis -91.4558 4.82538 174.792 xyz
    dof rx ry rz
  end
  begin
    id 22
    name lFoot
    direction 0.0209381 -0.999771 -0.00453005
    length 8.44474
    axis 4.86759 0.259522 -88.8001 xyz
    dof rx ry rz
  end
  begin
    id 23
    name rThighDummy
    direction -0.236086 -0.0385456 0.970967
    length 4.99155
    axis 0 0 0 xyz
  end
  begin
    id 24
    name rThigh
    direction -0.993968 0.0148995 0.108653
    length 13.5721
    axis -89.7059 -6.2377 179.141 xyz
    dof rx ry rz
  end
  begin
    id 25
    name rShin
    direction -0.9925 0.0899962 0.0827255
    length 18.6716
    axis -89.2745 -4.74775 174.819 xyz
    dof rx ry rz
  end
  begin
    id 26
    name rFoot
    direction 0.0301721 -0.999545 9.70865e-005
    length 8.45013
    axis -2.50066e-005 -0.00555246 -88.271 xyz
    dof rx ry rz
  end
:hierarchy
  begin
    root abdomenDummy lThighDummy rThighDummy
    abdomenDummy abdomen
    abdomen chest
    chest neckDummyDummy lCollarDummy rCollarDummy
    neckDummyDummy neckDummy
    neckDummy neck
    neck head
    head figureHair
    lCollarDummy lCollar
    lCollar lShldr
    lShldr lForeArm
    lForeArm lHand
    rCollarDummy rCollar
    rCollar rShldr
    rShldr rForeArm
    rForeArm rHand
    lThighDummy lThigh
    lThigh lShin
    lShin lFoot
    rThighDummy rThigh
    rThigh rShin
    rShin rFoot
  end

:SAMPLES-PER-SECOND 25
:FULLY-SPECIFIED
:DEGREES
1806
root  7.71958 37.0679 -5.75941 -173.3 4.13246 90.9422
abdomen  -1.19001 -6.75518 -4.39477
chest  -0.394882 3.24671 -9.94245
neckDummy  9.09964e-021 0 8.72668e-016
neck  -0.913532 7.38585 -27.4772
head  -0.808221 -6.91994 -14.4814
figureHair  0 1.51661e-021 -9.5315e-016
lCollar  -5.15695e-016 -6.42944e-016 -7.59357e-014
lShldr  10.0594 14.0212 -76.9581
lForeArm  21.8482 -21.3717 -0.572101
lHand  0.254698 0.195082 5.2986
rCollar  1.7976e-016 -5.12864e-014 1.62755e-015
rShldr  -14.0219 67.0118 -1.22446
rForeArm  1.71448 0.952176 31.2104
rHand  0.746133 -17.8304 0.139858
lThigh  -15.8847 -16.7006 1.16311
lShin  -0.483834 27.589 2.12642
lFoot  -1.76155 0.186464 -0.67442
rThigh  13.6794 -12.555 -5.98094
rShin  5.37733 8.45854 5.47714
rFoot  -6.83553 -0.165647 -7.01555
1807
root  7.34799 37.0698 -5.89483 -173.361 4.0865 91.3791
abdomen  -1.12247 -7.15461 -4.10831
chest  -0.262075 3.55379 -10.0203
neckDummy  9.09964e-021 0 8.72668e-016
neck  -0.865083 7.34709 -27.0408
head  -0.776978 -6.87376 -14.6402
figureHair  0 1.51661e-021 -9.5315e-016
lCollar  -5.15695e-016 -6.42944e-016 -7.59357e-014
lShldr  9.81781 14.0853 -76.8519
lForeArm  22.5158 -22.083 -0.541944
lHand  0.254698 0.195082 5.2986
rCollar  1.7976e-016 -5.12864e-014 1.62755e-015
rShldr  -12.0363 66.9997 -0.20249
rForeArm  2.11972 0.916455 33.6771
rHand  0.729925 -18.1742 0.313754
lThigh  -17.2419 -15.7366 1.14722
lShin  0.867997 20.7671 1.18589
lFoot  -2.74368 0.27867 -1.18425
rThigh  13.6538 -12.7475 -5.77877
rShin  5.42132 9.07135 5.53089
rFoot  -6.87922 -0.0861274 -6.22638
1808
root  7.01161 37.0572 -6.00056 -173.632 3.83113 91.6401
abdomen  -1.01507 -7.37268 -3.96626
chest  -0.155824 3.4802 -10.0287
neckDummy  9.09964e-021 0 8.72668e-016
neck  -0.803385 7.42036 -26.682
head  -0.741082 -6.81065 -14.6764
figureHair  0 1.51661e-021 -9.5315e-016
lCollar  -5.15695e-016 -6.42944e-016 -7.59357e-014
lShldr  9.27486 14.008 -76.7562
lForeArm  22.5945 -22.774 -0.512312
lHand  0.254698 0.195082 5.2986
rCollar  1.7976e-016 -5.12864e-014 1.62755e-015
rShldr  -10.4373 67.0254 1.29432
rForeArm  2.01703 0.894562 35.0962
rHand  0.731911 -18.3056 0.332602
lThigh  -12.1226 -14.2347 1.49557
lShin  -4.04053 13.6532 -2.33085
lFoot  -3.19035 0.301093 -2.09478
rThigh  13.4009 -12.8836 -5.30498
rShin  5.51699 9.58602 5.54632
rFoot  -7.08127 0.0316824 -5.62033
1809
root  6.69658 37.0478 -6.05749 -173.912 3.41745 91.6255
abdomen  -1.00332 -7.49655 -3.96528
chest  -0.171888 3.23335 -9.85989
neckDummy  9.09964e-021 0 8.72668e-016
neck  -0.63666 7.30635 -26.6341
head  -0.588436 -6.57427 -14.6031
figureHair  0 1.51661e-021 -9.5315e-016
lCollar  -5.15695e-016 -6.42944e-016 -7.59357e-014
lShldr  8.91397 13.9469 -76.5092
lForeArm  22.8598 -23.5728 -0.477739
lHand  0.254698 0.195082 5.2986
rCollar  1.7976e-016 -5.12864e-014 1.62755e-015
rShldr  -9.69458 67.222 2.52428
rForeArm  1.77196 0.887137 35.5231
rHand  0.747166 -18.2516 0.234934
lThigh  -7.99154 -12.547 2.03488
lShin  -7.64916 7.45066 -4.18497
lFoot  -3.15598 0.142645 -3.66201
rThigh  12.9685 -12.4284 -4.60626
rShin  5.62929 9.51075 5.55779
rFoot  -7.14009 0.120273 -5.09378
1810
root  6.3768 37.0009 -6.05308 -174.1 2.87975 91.3365
abdomen  -1.1301 -7.41757 -3.74031
chest  -0.349216 2.78243 -10.0452
neckDummy  9.09964e-021 0 8.72668e-016
neck  -0.425765 7.03547 -26.3542
head  -0.399117 -6.22233 -14.6117
figureHair  0 1.51661e-021 -9.5315e-016
lCollar  -5.15695e-016 -6.42944e-016 -7.59357e-014
lShldr  8.78502 13.7193 -76.0348
lForeArm  23.4211 -24.3578 -0.443344
lHand  0.254698 0.195082 5.2986
rCollar  1.7976e-016 -5.12864e-014 1.62755e-015
rShldr  -9.87872 67.7409 2.83405
rForeArm  1.48878 0.887307 35.4557
rHand  0.744844 -18.1724 0.229422
lThigh  -7.90549 -10.9321 2.63011
lShin  -7.714 3.50519 -4.51241
lFoot  -3.93922 0.550948 -5.49448
rThigh  12.6359 -11.8496 -3.94728
rShin  5.65281 9.80253 5.55727
rFoot  -7.05016 0.203706 -4.49667
1811
root  6.04836 36.9002 -6.00032 -174.447 1.9984 90.8703
abdomen  -1.30236 -7.76301 -3.1679
chest  -0.498862 2.45135 -10.7194
neckDummy  9.09964e-021 0 8.72668e-016
neck  -0.30527 6.91713 -25.6593
head  -0.335838 -5.95597 -14.4615
figureHair  0 1.51661e-021 -9.5315e-016
lCollar  -5.15695e-016 -6.42944e-016 -7.59357e-014
lShldr  8.44776 13.3375 -75.5571
lForeArm  23.9347 -25.202 -0.405825
lHand  0.254698 0.195082 5.2986
rCollar  1.7976e-016 -5.12864e-014 1.62755e-015
rShldr  -11.2567 68.3838 1.874
rForeArm  1.42402 0.891551 35.1402
rHand  0.729963 -18.1224 0.301412
lThigh  -8.32709 -9.84979 3.47857
lShin  -7.76313 2.13549 -4.67989
lFoot  -4.3888 0.0142234 -6.80113
rThigh  12.2288 -11.3196 -3.02134
rShin  5.71809 10.4126 5.59377
rFoot  -7.06304 0.30251 -3.79731
1812
root  5.73969 36.8418 -5.91304 -175.218 0.855865 90.2332
abdomen  -1.4526 -8.72321 -2.64007
chest  -0.522031 2.48464 -11.2619
neckDummy  9.09964e-021 0 8.72668e-016
neck  -0.205608 7.13197 -24.9941
head  -0.326995 -5.76463 -13.8974
figureHair  0 1.51661e-021 -9.5315e-016
lCollar  -5.15695e-016 -6.42944e-016 -7.59357e-014
lShldr  7.92646 13.1439 -75.3534
lForeArm  24.2759 -26.3563 -0.353712
lHand  0.254698 0.195082 5.2986
rCollar  1.7976e-016 -5.12864e-014 1.62755e-015
rShldr  -14.1159 68.7729 -0.14901
rForeArm  1.63965 0.902854 34.3778
rHand  0.711494 -18.0862 0.397204
lThigh  -8.59707 -8.72814 4.06956
lShin  -7.83136 1.56204 -4.41098
lFoot  -2.26158 0.146194 -8.23345
rThigh  11.4436 -10.0241 -1.7014
rShin  5.68498 9.614 5.66987
rFoot  -7.13511 0.335204 -3.64125
1813
root  5.45899 36.8627 -5.78962 -176.013 0.212402 89.7021
abdomen  -1.52554 -9.06616 -2.24782
chest  -0.553457 2.2141 -11.5166
neckDummy  9.09964e-021 0 8.72668e-016
neck  -0.0456549 7.59222 -24.2051
head  -0.286431 -5.6808 -13.1487
figureHair  0 1.51661e-021 -9.5315e-016
lCollar  -5.15695e-016 -6.42944e-016 -7.59357e-014
lShldr  7.69507 12.963 -75.3792
lForeArm  24.2343 -27.327 -0.309094
lHand  0.254698 0.195082 5.2986
rCollar  1.7976e-016 -5.12864e-014 1.62755e-015
rShldr  -17.7089 69.1053 -2.42055
rForeArm  1.42294 0.928585 32.6375
rHand  0.677987 -18.1241 0.594444
lThigh  -8.43084 -7.39036 4.05413
lShin  -8.15426 0.884136 -3.86942
lFoot  0.844103 -0.0176735 -9.21145
rThigh  10.6595 -8.23293 -0.680974
rShin  5.34427 7.91808 5.61037
rFoot  -7.09362 0.275225 -4.01766
1814
root  5.20082 36.9037 -5.64974 -176.563 -0.016571 89.398
abdomen  -1.43443 -8.00951 -1.66876
chest  -0.590797 1.29301 -11.7439
neckDummy  9.09964e-021 0 8.72668e-016
neck  0.0360252 8.12426 -22.613
head  -0.406019 -5.81424 -11.9398
figureHair  0 1.51661e-021 -9.5315e-016
lCollar  -5.15695e-016 -6.42944e-016 -7.59357e-014
lShldr  7.80147 12.4523 -75.2671
lForeArm  24.0016 -27.6321 -0.294851
lHand  0.254698 0.195082 5.2986
rCollar  1.7976e-016 -5.12864e-014 1.62755e-015
rShldr  -21.7289 69.9853 -5.10693
rForeArm  1.25591 0.972887 29.5108
rHand  0.608754 -18.2845 1.01545
lThigh  -8.29342 -6.31392 3.88231
lShin  -8.63742 0.558944 -3.73978
lFoot  1.61055 -0.0522929 -9.10274
rThigh  10.2596 -7.27519 -0.40442
rShin  4.95263 7.35315 5.24786
rFoot  -6.94446 0.257962 -4.05982
1815
root  4.9777 36.9177 -5.49748 -177.02 0.122589 89.4369
abdomen  -1.28963 -6.85249 -1.01096
chest  -0.541178 0.770749 -11.6505
neckDummy  9.09964e-021 0 8.72668e-016
neck  0.0405172 8.66152 -19.891
head  -0.773679 -5.88909 -9.41408
figureHair  0 1.51661e-021 -9.5315e-016
lCollar  -5.15695e-016 -6.42944e-016 -7.59357e-014
lShldr  8.11643 11.9387 -74.625
lForeArm  24.2394 -27.8563 -0.284369
lHand  0.254698 0.195082 5.2986
rCollar  1.7976e-016 -5.12864e-014 1.62755e-015
rShldr  -27.0906 71.4079 -9.08222
rForeArm  2.07188 1.02361 25.2512
rHand  0.462611 -18.6043 1.87917
lThigh  -8.51457 -5.77417 3.89901
lShin  -8.95627 0.635407 -4.13577
lFoot  0.730808 -0.027222 -8.30139
rThigh  10.0874 -7.37006 -0.489721
rShin  4.68087 7.86771 4.75534
rFoot  -6.7062 0.296038 -3.63761
